<?xml version="1.0" encoding="UTF-8" standalone="no"?><svg xmlns="http://www.w3.org/2000/svg" xmlns:xlink="http://www.w3.org/1999/xlink" contentScriptType="application/ecmascript" contentStyleType="text/css" height="263px" preserveAspectRatio="none" style="width:478px;height:263px;" version="1.1" viewBox="0 0 478 263" width="478px" zoomAndPan="magnify"><defs/><g><!--cluster Dependencies--><path d="M25,168 L119,168 A4.5,4.5 0 0 1 122,171 L129,188.4844 L463,188.4844 A3,3 0 0 1 466,191.4844 L466,248 A3,3 0 0 1 463,251 L25,251 A3,3 0 0 1 22,248 L22,171 A3,3 0 0 1 25,168 " fill="#FFFFFF" style="stroke: #000000; stroke-width: 1.5;"/><line style="stroke: #000000; stroke-width: 1.5;" x1="22" x2="129" y1="188.4844" y2="188.4844"/><text fill="#000000" font-family="Tahoma, sans-serif" font-size="12" font-weight="bold" lengthAdjust="spacingAndGlyphs" textLength="94" x="26" y="182.0059">Dependencies</text><!--entity commander--><rect fill="#F8F8F8" height="34.4844" rx="3" ry="3" style="stroke: #383838; stroke-width: 1.0;" width="89" x="38.5" y="201"/><rect fill="#F8F8F8" height="5" style="stroke: #383838; stroke-width: 1.0;" width="10" x="33.5" y="206"/><rect fill="#F8F8F8" height="5" style="stroke: #383838; stroke-width: 1.0;" width="10" x="33.5" y="225.4844"/><text fill="#000000" font-family="Tahoma, sans-serif" font-size="12" lengthAdjust="spacingAndGlyphs" textLength="69" x="48.5" y="223.0059">commander</text><!--entity moo--><rect fill="#F8F8F8" height="34.4844" rx="3" ry="3" style="stroke: #383838; stroke-width: 1.0;" width="47" x="214.5" y="201"/><rect fill="#F8F8F8" height="5" style="stroke: #383838; stroke-width: 1.0;" width="10" x="209.5" y="206"/><rect fill="#F8F8F8" height="5" style="stroke: #383838; stroke-width: 1.0;" width="10" x="209.5" y="225.4844"/><text fill="#000000" font-family="Tahoma, sans-serif" font-size="12" lengthAdjust="spacingAndGlyphs" textLength="27" x="224.5" y="223.0059">moo</text><!--entity nearley--><rect fill="#F8F8F8" height="34.4844" rx="3" ry="3" style="stroke: #383838; stroke-width: 1.0;" width="61" x="140.5" y="201"/><rect fill="#F8F8F8" height="5" style="stroke: #383838; stroke-width: 1.0;" width="10" x="135.5" y="206"/><rect fill="#F8F8F8" height="5" style="stroke: #383838; stroke-width: 1.0;" width="10" x="135.5" y="225.4844"/><text fill="#000000" font-family="Tahoma, sans-serif" font-size="12" lengthAdjust="spacingAndGlyphs" textLength="41" x="150.5" y="223.0059">nearley</text><!--entity seedrandom--><rect fill="#F8F8F8" height="34.4844" rx="3" ry="3" style="stroke: #383838; stroke-width: 1.0;" width="92" x="275" y="201"/><rect fill="#F8F8F8" height="5" style="stroke: #383838; stroke-width: 1.0;" width="10" x="270" y="206"/><rect fill="#F8F8F8" height="5" style="stroke: #383838; stroke-width: 1.0;" width="10" x="270" y="225.4844"/><text fill="#000000" font-family="Tahoma, sans-serif" font-size="12" lengthAdjust="spacingAndGlyphs" textLength="72" x="285" y="223.0059">seedrandom</text><!--entity titlecase--><rect fill="#F8F8F8" height="34.4844" rx="3" ry="3" style="stroke: #383838; stroke-width: 1.0;" width="69" x="380.5" y="201"/><rect fill="#F8F8F8" height="5" style="stroke: #383838; stroke-width: 1.0;" width="10" x="375.5" y="206"/><rect fill="#F8F8F8" height="5" style="stroke: #383838; stroke-width: 1.0;" width="10" x="375.5" y="225.4844"/><text fill="#000000" font-family="Tahoma, sans-serif" font-size="12" lengthAdjust="spacingAndGlyphs" textLength="49" x="390.5" y="223.0059">titlecase</text><ellipse cx="359.0811" cy="48.1648" fill="#F8F8F8" rx="15.0811" ry="12.6648" style="stroke: #383838; stroke-width: 0.5;"/><text fill="#000000" font-family="Tahoma, sans-serif" font-size="12" font-weight="bold" lengthAdjust="spacingAndGlyphs" textLength="16" x="351.0811" y="51.907">cli</text><ellipse cx="418.7843" cy="48.242" fill="#F8F8F8" rx="31.2843" ry="13.242" style="stroke: #383838; stroke-width: 0.5;"/><text fill="#000000" font-family="Tahoma, sans-serif" font-size="12" font-weight="bold" lengthAdjust="spacingAndGlyphs" textLength="40" x="398.7843" y="51.9842">decl.d</text><!--entity _filigree--><rect fill="#F8F8F8" height="34.4844" rx="3" ry="3" style="stroke: #000000; stroke-width: 0.5;" width="58" x="273" y="31"/><text fill="#000000" font-family="Tahoma, sans-serif" font-size="12" lengthAdjust="spacingAndGlyphs" textLength="38" x="283" y="53.0059">filigree</text><ellipse cx="84.0833" cy="48.242" fill="#F8F8F8" rx="51.0833" ry="13.242" style="stroke: #383838; stroke-width: 0.5;"/><text fill="#000000" font-family="Tahoma, sans-serif" font-size="12" font-weight="bold" lengthAdjust="spacingAndGlyphs" textLength="68" x="50.0833" y="51.9842">filigree-cli</text><!--entity _filigreeGrammar--><rect fill="#F8F8F8" height="34.4844" rx="3" ry="3" style="stroke: #000000; stroke-width: 0.5;" width="111" x="148.5" y="91"/><text fill="#000000" font-family="Tahoma, sans-serif" font-size="12" lengthAdjust="spacingAndGlyphs" textLength="91" x="158.5" y="113.0059">filigreeGrammar</text><ellipse cx="204.2187" cy="48.1437" fill="#F8F8F8" rx="56.2187" ry="13.6437" style="stroke: #383838; stroke-width: 0.5;"/><text fill="#000000" font-family="Tahoma, sans-serif" font-size="12" font-weight="bold" lengthAdjust="spacingAndGlyphs" textLength="78" x="165.2187" y="51.8859">test-filigree</text><ellipse cx="319.8406" cy="108.242" fill="#F8F8F8" rx="46.8406" ry="13.242" style="stroke: #383838; stroke-width: 0.5;"/><text fill="#000000" font-family="Tahoma, sans-serif" font-size="12" font-weight="bold" lengthAdjust="spacingAndGlyphs" textLength="62" x="288.8406" y="111.9842">test-moo</text><!--link _filigree to _filigreeGrammar--><path d="M274.962,65.002 C262.852,72.169 248.485,80.672 235.857,88.146 " fill="none" id="_filigree-_filigreeGrammar" style="stroke: #000000; stroke-width: 0.5;"/><polygon fill="#000000" points="231.29,90.849,241.0724,89.7065,235.5926,88.302,236.9971,82.8223,231.29,90.849" style="stroke: #000000; stroke-width: 0.5;"/><!--link _filigree to nearley--><path d="M272.729,62.616 C270.473,63.478 268.213,64.285 266,65 C212.417,82.309 177.497,47.288 142,91 C117.254,121.473 139.851,169.1129 156.656,196.2437 " fill="none" id="_filigree-nearley" style="stroke: #000000; stroke-width: 0.5;"/><polygon fill="#000000" points="159.504,200.7392,158.0668,190.9958,156.8283,196.5154,151.3087,195.2769,159.504,200.7392" style="stroke: #000000; stroke-width: 0.5;"/><!--link _filigree to seedrandom--><path d="M331.009,62.217 C348.79,70.98 369.063,82.404 374,91 C394.419,126.551 363.143,171.5006 340.644,196.9738 " fill="none" id="_filigree-seedrandom" style="stroke: #000000; stroke-width: 0.5;"/><polygon fill="#000000" points="337.118,200.8904,346.1127,196.8785,340.4636,197.1746,340.1675,191.5255,337.118,200.8904" style="stroke: #000000; stroke-width: 0.5;"/><!--link _filigree to titlecase--><path d="M331.232,61.934 C354.281,72.377 383.164,86.111 387,91 C410.99,121.577 415.326,168.5559 415.627,195.6778 " fill="none" id="_filigree-titlecase" style="stroke: #000000; stroke-width: 0.5;"/><polygon fill="#000000" points="415.638,200.8267,419.6184,191.818,415.6271,195.8267,411.6185,191.8354,415.638,200.8267" style="stroke: #000000; stroke-width: 0.5;"/><!--link <b>filigree-cli</b> to commander--><path d="M83.9281,61.082 C83.7602,89.291 83.3405,159.8 83.1278,195.5273 " fill="none" id="&lt;b&gt;filigree-cli&lt;/b&gt;-commander" style="stroke: #000000; stroke-width: 1.0;"/><polygon fill="#000000" points="83.0955,200.9509,87.1492,191.9749,83.1254,195.951,79.1493,191.9272,83.0955,200.9509" style="stroke: #000000; stroke-width: 1.0;"/><!--link <b>filigree-cli</b> to _filigree--><path d="M103.766,35.873 C115.901,29.152 132.034,21.47 147.5,18 C196.071,7.104 212.055,2.941 259.5,18 C266.223,20.134 272.799,23.757 278.692,27.763 " fill="none" id="&lt;b&gt;filigree-cli&lt;/b&gt;-_filigree" style="stroke: #000000; stroke-width: 1.0;"/><polygon fill="#000000" points="283.057,30.883,278.0612,22.3953,278.9893,27.9755,273.4091,28.9036,283.057,30.883" style="stroke: #000000; stroke-width: 1.0;"/><!--link _filigreeGrammar to moo--><path d="M209.164,125.403 C215.089,144.225 224.823,175.1451 231.321,195.7845 " fill="none" id="_filigreeGrammar-moo" style="stroke: #000000; stroke-width: 0.5;"/><polygon fill="#000000" points="232.899,200.7966,234.0123,191.0109,231.3978,196.0273,226.3814,193.4128,232.899,200.7966" style="stroke: #000000; stroke-width: 0.5;"/><!--link <b>test-filigree</b> to _filigree--><path d="M260.273,48 C262.79,48 265.306,48 267.822,48 " fill="none" id="&lt;b&gt;test-filigree&lt;/b&gt;-_filigree" style="stroke: #000000; stroke-width: 1.0;"/><polygon fill="#000000" points="272.987,48,263.987,44,267.987,48,263.987,52,272.987,48" style="stroke: #000000; stroke-width: 1.0;"/><!--link <b>test-filigree</b> to _filigreeGrammar--><path d="M204,61.585 C204,68.515 204,77.31 204,85.31 " fill="none" id="&lt;b&gt;test-filigree&lt;/b&gt;-_filigreeGrammar" style="stroke: #000000; stroke-width: 1.0;"/><polygon fill="#000000" points="204,90.689,208,81.689,204,85.689,200,81.689,204,90.689" style="stroke: #000000; stroke-width: 1.0;"/><!--link <b>test-moo</b> to moo--><path d="M306.01,120.556 C294.807,130.287 279.173,144.987 268,160 C259.646,171.225 252.292,185.0942 246.955,196.3411 " fill="none" id="&lt;b&gt;test-moo&lt;/b&gt;-moo" style="stroke: #000000; stroke-width: 1.0;"/><polygon fill="#000000" points="244.795,200.9854,252.2177,194.5121,246.9038,196.4519,244.964,191.138,244.795,200.9854" style="stroke: #000000; stroke-width: 1.0;"/><script type="text/plantuml"><![CDATA[
@startuml

scale max 1920 width
top to bottom direction

skinparam nodesep 13
skinparam ranksep 26
skinparam monochrome true
skinparam shadowing false
skinparam defaultFontName Tahoma
skinparam defaultFontSize 12
skinparam roundCorner 6
skinparam dpi 150
skinparam arrowColor black
skinparam arrowThickness 0.5
skinparam packageTitleAlignment left

skinparam usecase {
  borderThickness 0.5
}

skinparam rectangle {
  borderThickness 0.5
}

skinparam component {
  borderThickness 1
}


(<b>cli</b>)
(<b>decl.d</b>)
rectangle "filigree" as _filigree
(<b>filigree-cli</b>)
rectangle "filigreeGrammar" as _filigreeGrammar
(<b>test-filigree</b>)
(<b>test-moo</b>)

package "Dependencies" {
  [commander]
  [moo]
  [nearley]
  [seedrandom]
  [titlecase]
}

_filigree --> _filigreeGrammar
_filigree ---> [nearley]
_filigree ---> [seedrandom]
_filigree ---> [titlecase]
(<b>filigree-cli</b>) ---[thickness=1]> [commander]
(<b>filigree-cli</b>) -[thickness=1]> _filigree
_filigreeGrammar ---> [moo]
(<b>test-filigree</b>) -[thickness=1]> _filigree
(<b>test-filigree</b>) -[thickness=1]> _filigreeGrammar
(<b>test-moo</b>) ---[thickness=1]> [moo]

@enduml


' View and edit on https://arkit.pro
]]></script></g></svg>