<?xml version="1.0" encoding="UTF-8" standalone="no"?><svg xmlns="http://www.w3.org/2000/svg" xmlns:xlink="http://www.w3.org/1999/xlink" contentScriptType="application/ecmascript" contentStyleType="text/css" height="261px" preserveAspectRatio="none" style="width:448px;height:261px;" version="1.1" viewBox="0 0 448 261" width="448px" zoomAndPan="magnify"><defs/><g><!--cluster Dependencies--><path d="M56,166 L150,166 A4.5,4.5 0 0 1 153,169 L160,186.4844 L306,186.4844 A3,3 0 0 1 309,189.4844 L309,246 A3,3 0 0 1 306,249 L56,249 A3,3 0 0 1 53,246 L53,169 A3,3 0 0 1 56,166 " fill="#FFFFFF" style="stroke: #000000; stroke-width: 1.5;"/><line style="stroke: #000000; stroke-width: 1.5;" x1="53" x2="160" y1="186.4844" y2="186.4844"/><text fill="#000000" font-family="Tahoma, sans-serif" font-size="12" font-weight="bold" lengthAdjust="spacingAndGlyphs" textLength="94" x="57" y="180.0059">Dependencies</text><!--entity commander--><rect fill="#F8F8F8" height="34.4844" rx="3" ry="3" style="stroke: #383838; stroke-width: 1.0;" width="89" x="69.5" y="199"/><rect fill="#F8F8F8" height="5" style="stroke: #383838; stroke-width: 1.0;" width="10" x="64.5" y="204"/><rect fill="#F8F8F8" height="5" style="stroke: #383838; stroke-width: 1.0;" width="10" x="64.5" y="223.4844"/><text fill="#000000" font-family="Tahoma, sans-serif" font-size="12" lengthAdjust="spacingAndGlyphs" textLength="69" x="79.5" y="221.0059">commander</text><!--entity moo--><rect fill="#F8F8F8" height="34.4844" rx="3" ry="3" style="stroke: #383838; stroke-width: 1.0;" width="47" x="245.5" y="199"/><rect fill="#F8F8F8" height="5" style="stroke: #383838; stroke-width: 1.0;" width="10" x="240.5" y="204"/><rect fill="#F8F8F8" height="5" style="stroke: #383838; stroke-width: 1.0;" width="10" x="240.5" y="223.4844"/><text fill="#000000" font-family="Tahoma, sans-serif" font-size="12" lengthAdjust="spacingAndGlyphs" textLength="27" x="255.5" y="221.0059">moo</text><!--entity nearley--><rect fill="#F8F8F8" height="34.4844" rx="3" ry="3" style="stroke: #383838; stroke-width: 1.0;" width="61" x="171.5" y="199"/><rect fill="#F8F8F8" height="5" style="stroke: #383838; stroke-width: 1.0;" width="10" x="166.5" y="204"/><rect fill="#F8F8F8" height="5" style="stroke: #383838; stroke-width: 1.0;" width="10" x="166.5" y="223.4844"/><text fill="#000000" font-family="Tahoma, sans-serif" font-size="12" lengthAdjust="spacingAndGlyphs" textLength="41" x="181.5" y="221.0059">nearley</text><ellipse cx="332.0811" cy="48.1648" fill="#F8F8F8" rx="15.0811" ry="12.6648" style="stroke: #383838; stroke-width: 0.5;"/><text fill="#000000" font-family="Tahoma, sans-serif" font-size="12" font-weight="bold" lengthAdjust="spacingAndGlyphs" textLength="16" x="324.0811" y="51.907">cli</text><ellipse cx="391.7843" cy="48.242" fill="#F8F8F8" rx="31.2843" ry="13.242" style="stroke: #383838; stroke-width: 0.5;"/><text fill="#000000" font-family="Tahoma, sans-serif" font-size="12" font-weight="bold" lengthAdjust="spacingAndGlyphs" textLength="40" x="371.7843" y="51.9842">decl.d</text><!--entity _filigree--><rect fill="#F8F8F8" height="34.4844" rx="3" ry="3" style="stroke: #000000; stroke-width: 0.5;" width="58" x="246" y="31"/><text fill="#000000" font-family="Tahoma, sans-serif" font-size="12" lengthAdjust="spacingAndGlyphs" textLength="38" x="256" y="53.0059">filigree</text><ellipse cx="57.0833" cy="48.242" fill="#F8F8F8" rx="51.0833" ry="13.242" style="stroke: #383838; stroke-width: 0.5;"/><text fill="#000000" font-family="Tahoma, sans-serif" font-size="12" font-weight="bold" lengthAdjust="spacingAndGlyphs" textLength="68" x="23.0833" y="51.9842">filigree-cli</text><!--entity _filigreeGrammar--><rect fill="#F8F8F8" height="34.4844" rx="3" ry="3" style="stroke: #000000; stroke-width: 0.5;" width="111" x="219.5" y="90"/><text fill="#000000" font-family="Tahoma, sans-serif" font-size="12" lengthAdjust="spacingAndGlyphs" textLength="91" x="229.5" y="112.0059">filigreeGrammar</text><ellipse cx="177.2187" cy="48.1437" fill="#F8F8F8" rx="56.2187" ry="13.6437" style="stroke: #383838; stroke-width: 0.5;"/><text fill="#000000" font-family="Tahoma, sans-serif" font-size="12" font-weight="bold" lengthAdjust="spacingAndGlyphs" textLength="78" x="138.2187" y="51.8859">test-filigree</text><ellipse cx="390.8406" cy="107.242" fill="#F8F8F8" rx="46.8406" ry="13.242" style="stroke: #383838; stroke-width: 0.5;"/><text fill="#000000" font-family="Tahoma, sans-serif" font-size="12" font-weight="bold" lengthAdjust="spacingAndGlyphs" textLength="62" x="359.8406" y="110.9842">test-moo</text><!--link _filigree to _filigreeGrammar--><path d="M275,65.181 C275,71.25 275,78.241 275,84.703 " fill="none" id="_filigree-_filigreeGrammar" style="stroke: #000000; stroke-width: 0.5;"/><polygon fill="#000000" points="275,89.975,279,80.975,275,84.975,271,80.975,275,89.975" style="stroke: #000000; stroke-width: 0.5;"/><!--link _filigree to nearley--><path d="M245.813,64.978 C231.768,73.292 217.094,83.126 213,90 C193.875,122.112 195.444,167.3234 198.559,193.6546 " fill="none" id="_filigree-nearley" style="stroke: #000000; stroke-width: 0.5;"/><polygon fill="#000000" points="199.197,198.6597,202.0268,189.2261,198.5647,193.6998,194.091,190.2378,199.197,198.6597" style="stroke: #000000; stroke-width: 0.5;"/><!--link <b>filigree-cli</b> to commander--><path d="M61.1913,61.206 C70.8462,89.324 94.7473,158.931 106.803,194.039 " fill="none" id="&lt;b&gt;filigree-cli&lt;/b&gt;-commander" style="stroke: #000000; stroke-width: 1.0;"/><polygon fill="#000000" points="108.492,198.9595,109.3519,189.1483,106.868,194.2306,101.7856,191.7467,108.492,198.9595" style="stroke: #000000; stroke-width: 1.0;"/><!--link <b>filigree-cli</b> to _filigree--><path d="M77.0728,35.921 C89.1838,29.347 105.1882,21.883 120.5,18.5 C169.54,7.665 185.656,3.228 233.5,18.5 C239.942,20.556 246.24,24.018 251.904,27.861 " fill="none" id="&lt;b&gt;filigree-cli&lt;/b&gt;-_filigree" style="stroke: #000000; stroke-width: 1.0;"/><polygon fill="#000000" points="256.105,30.858,251.101,22.3751,252.0345,27.9544,246.4552,28.8879,256.105,30.858" style="stroke: #000000; stroke-width: 1.0;"/><!--link _filigreeGrammar to moo--><path d="M274.089,124.251 C273.047,142.82 271.34,173.2733 270.193,193.7204 " fill="none" id="_filigreeGrammar-moo" style="stroke: #000000; stroke-width: 0.5;"/><polygon fill="#000000" points="269.9,198.9467,274.3978,190.1849,270.18,193.9545,266.4104,189.7368,269.9,198.9467" style="stroke: #000000; stroke-width: 0.5;"/><!--link <b>test-filigree</b> to _filigree--><path d="M233.273,48 C235.79,48 238.306,48 240.822,48 " fill="none" id="&lt;b&gt;test-filigree&lt;/b&gt;-_filigree" style="stroke: #000000; stroke-width: 1.0;"/><polygon fill="#000000" points="245.987,48,236.987,44,240.987,48,236.987,52,245.987,48" style="stroke: #000000; stroke-width: 1.0;"/><!--link <b>test-moo</b> to moo--><path d="M377.478,119.86 C356.631,138.143 316.424,173.4072 291.247,195.4881 " fill="none" id="&lt;b&gt;test-moo&lt;/b&gt;-moo" style="stroke: #000000; stroke-width: 1.0;"/><polygon fill="#000000" points="287.341,198.9141,296.7447,195.9865,291.0999,195.617,291.4694,189.9723,287.341,198.9141" style="stroke: #000000; stroke-width: 1.0;"/><script type="text/plantuml"><![CDATA[
@startuml

scale max 1920 width
top to bottom direction

skinparam nodesep 13
skinparam ranksep 25
skinparam monochrome true
skinparam shadowing false
skinparam defaultFontName Tahoma
skinparam defaultFontSize 12
skinparam roundCorner 6
skinparam dpi 150
skinparam arrowColor black
skinparam arrowThickness 0.5
skinparam packageTitleAlignment left

skinparam usecase {
  borderThickness 0.5
}

skinparam rectangle {
  borderThickness 0.5
}

skinparam component {
  borderThickness 1
}


(<b>cli</b>)
(<b>decl.d</b>)
rectangle "filigree" as _filigree
(<b>filigree-cli</b>)
rectangle "filigreeGrammar" as _filigreeGrammar
(<b>test-filigree</b>)
(<b>test-moo</b>)

package "Dependencies" {
  [commander]
  [moo]
  [nearley]
}

_filigree --> _filigreeGrammar
_filigree ---> [nearley]
(<b>filigree-cli</b>) ---[thickness=1]> [commander]
(<b>filigree-cli</b>) -[thickness=1]> _filigree
_filigreeGrammar ---> [moo]
(<b>test-filigree</b>) -[thickness=1]> _filigree
(<b>test-moo</b>) ---[thickness=1]> [moo]

@enduml


' View and edit on https://arkit.pro
]]></script></g></svg>