<?xml version="1.0" encoding="UTF-8" standalone="no"?><svg xmlns="http://www.w3.org/2000/svg" xmlns:xlink="http://www.w3.org/1999/xlink" contentScriptType="application/ecmascript" contentStyleType="text/css" height="261px" preserveAspectRatio="none" style="width:445px;height:261px;" version="1.1" viewBox="0 0 445 261" width="445px" zoomAndPan="magnify"><defs/><g><!--cluster Dependencies--><path d="M56,166 L150,166 A4.5,4.5 0 0 1 153,169 L160,186.4844 L304,186.4844 A3,3 0 0 1 307,189.4844 L307,246 A3,3 0 0 1 304,249 L56,249 A3,3 0 0 1 53,246 L53,169 A3,3 0 0 1 56,166 " fill="#FFFFFF" style="stroke: #000000; stroke-width: 1.5;"/><line style="stroke: #000000; stroke-width: 1.5;" x1="53" x2="160" y1="186.4844" y2="186.4844"/><text fill="#000000" font-family="Tahoma, sans-serif" font-size="12" font-weight="bold" lengthAdjust="spacingAndGlyphs" textLength="94" x="57" y="180.0059">Dependencies</text><!--entity commander--><rect fill="#F8F8F8" height="34.4844" rx="3" ry="3" style="stroke: #383838; stroke-width: 1.0;" width="89" x="69.5" y="199"/><rect fill="#F8F8F8" height="5" style="stroke: #383838; stroke-width: 1.0;" width="10" x="64.5" y="204"/><rect fill="#F8F8F8" height="5" style="stroke: #383838; stroke-width: 1.0;" width="10" x="64.5" y="223.4844"/><text fill="#000000" font-family="Tahoma, sans-serif" font-size="12" lengthAdjust="spacingAndGlyphs" textLength="69" x="79.5" y="221.0059">commander</text><!--entity moo--><rect fill="#F8F8F8" height="34.4844" rx="3" ry="3" style="stroke: #383838; stroke-width: 1.0;" width="47" x="243.5" y="199"/><rect fill="#F8F8F8" height="5" style="stroke: #383838; stroke-width: 1.0;" width="10" x="238.5" y="204"/><rect fill="#F8F8F8" height="5" style="stroke: #383838; stroke-width: 1.0;" width="10" x="238.5" y="223.4844"/><text fill="#000000" font-family="Tahoma, sans-serif" font-size="12" lengthAdjust="spacingAndGlyphs" textLength="27" x="253.5" y="221.0059">moo</text><!--entity nearley--><rect fill="#F8F8F8" height="34.4844" rx="3" ry="3" style="stroke: #383838; stroke-width: 1.0;" width="61" x="170.5" y="199"/><rect fill="#F8F8F8" height="5" style="stroke: #383838; stroke-width: 1.0;" width="10" x="165.5" y="204"/><rect fill="#F8F8F8" height="5" style="stroke: #383838; stroke-width: 1.0;" width="10" x="165.5" y="223.4844"/><text fill="#000000" font-family="Tahoma, sans-serif" font-size="12" lengthAdjust="spacingAndGlyphs" textLength="41" x="180.5" y="221.0059">nearley</text><ellipse cx="329.0811" cy="48.1648" fill="#F8F8F8" rx="15.0811" ry="12.6648" style="stroke: #383838; stroke-width: 0.5;"/><text fill="#000000" font-family="Tahoma, sans-serif" font-size="12" font-weight="bold" lengthAdjust="spacingAndGlyphs" textLength="16" x="321.0811" y="51.907">cli</text><!--entity _filigree--><rect fill="#F8F8F8" height="34.4844" rx="3" ry="3" style="stroke: #000000; stroke-width: 0.5;" width="58" x="244" y="31"/><text fill="#000000" font-family="Tahoma, sans-serif" font-size="12" lengthAdjust="spacingAndGlyphs" textLength="38" x="254" y="53.0059">filigree</text><ellipse cx="57.0833" cy="48.242" fill="#F8F8F8" rx="51.0833" ry="13.242" style="stroke: #383838; stroke-width: 0.5;"/><text fill="#000000" font-family="Tahoma, sans-serif" font-size="12" font-weight="bold" lengthAdjust="spacingAndGlyphs" textLength="68" x="23.0833" y="51.9842">filigree-cli</text><!--entity _filigreeGrammar--><rect fill="#F8F8F8" height="34.4844" rx="3" ry="3" style="stroke: #000000; stroke-width: 0.5;" width="111" x="217.5" y="90"/><text fill="#000000" font-family="Tahoma, sans-serif" font-size="12" lengthAdjust="spacingAndGlyphs" textLength="91" x="227.5" y="112.0059">filigreeGrammar</text><ellipse cx="176.2187" cy="48.1437" fill="#F8F8F8" rx="56.2187" ry="13.6437" style="stroke: #383838; stroke-width: 0.5;"/><text fill="#000000" font-family="Tahoma, sans-serif" font-size="12" font-weight="bold" lengthAdjust="spacingAndGlyphs" textLength="78" x="137.2187" y="51.8859">test-filigree</text><ellipse cx="387.8406" cy="107.242" fill="#F8F8F8" rx="46.8406" ry="13.242" style="stroke: #383838; stroke-width: 0.5;"/><text fill="#000000" font-family="Tahoma, sans-serif" font-size="12" font-weight="bold" lengthAdjust="spacingAndGlyphs" textLength="62" x="356.8406" y="110.9842">test-moo</text><!--link _filigree to _filigreeGrammar--><path d="M273,65.181 C273,71.25 273,78.241 273,84.703 " fill="none" id="_filigree-_filigreeGrammar" style="stroke: #000000; stroke-width: 0.5;"/><polygon fill="#000000" points="273,89.975,277,80.975,273,84.975,269,80.975,273,89.975" style="stroke: #000000; stroke-width: 0.5;"/><!--link _filigree to nearley--><path d="M243.791,64.965 C229.74,73.275 215.067,83.11 211,90 C192.016,122.166 193.986,167.3592 197.35,193.6723 " fill="none" id="_filigree-nearley" style="stroke: #000000; stroke-width: 0.5;"/><polygon fill="#000000" points="198.036,198.6738,200.776,189.2138,197.3566,193.7202,192.8502,190.3008,198.036,198.6738" style="stroke: #000000; stroke-width: 0.5;"/><!--link <b>filigree-cli</b> to commander--><path d="M61.1913,61.206 C70.8462,89.324 94.7473,158.931 106.803,194.039 " fill="none" id="&lt;b&gt;filigree-cli&lt;/b&gt;-commander" style="stroke: #000000; stroke-width: 1.0;"/><polygon fill="#000000" points="108.492,198.9595,109.3519,189.1483,106.868,194.2306,101.7856,191.7467,108.492,198.9595" style="stroke: #000000; stroke-width: 1.0;"/><!--link <b>filigree-cli</b> to _filigree--><path d="M76.9027,35.921 C88.9142,29.348 104.7924,21.884 120,18.5 C168.589,7.687 184.623,3.227 232,18.5 C238.385,20.558 244.615,24.021 250.213,27.864 " fill="none" id="&lt;b&gt;filigree-cli&lt;/b&gt;-_filigree" style="stroke: #000000; stroke-width: 1.0;"/><polygon fill="#000000" points="254.362,30.861,249.408,22.3488,250.3086,27.9335,244.724,28.8342,254.362,30.861" style="stroke: #000000; stroke-width: 1.0;"/><!--link _filigreeGrammar to moo--><path d="M272.089,124.251 C271.047,142.82 269.34,173.2733 268.193,193.7204 " fill="none" id="_filigreeGrammar-moo" style="stroke: #000000; stroke-width: 0.5;"/><polygon fill="#000000" points="267.9,198.9467,272.3978,190.1849,268.18,193.9545,264.4104,189.7368,267.9,198.9467" style="stroke: #000000; stroke-width: 0.5;"/><!--link <b>test-filigree</b> to _filigree--><path d="M232.078,48 C234.296,48 236.514,48 238.732,48 " fill="none" id="&lt;b&gt;test-filigree&lt;/b&gt;-_filigree" style="stroke: #000000; stroke-width: 1.0;"/><polygon fill="#000000" points="243.907,48,234.907,44,238.907,48,234.907,52,243.907,48" style="stroke: #000000; stroke-width: 1.0;"/><!--link <b>test-moo</b> to moo--><path d="M374.589,119.86 C353.913,138.143 314.035,173.4072 289.065,195.4881 " fill="none" id="&lt;b&gt;test-moo&lt;/b&gt;-moo" style="stroke: #000000; stroke-width: 1.0;"/><polygon fill="#000000" points="285.191,198.9141,294.5831,195.9497,288.937,195.6023,289.2843,189.9562,285.191,198.9141" style="stroke: #000000; stroke-width: 1.0;"/><script type="text/plantuml"><![CDATA[
@startuml

scale max 1920 width
top to bottom direction

skinparam nodesep 12
skinparam ranksep 25
skinparam monochrome true
skinparam shadowing false
skinparam defaultFontName Tahoma
skinparam defaultFontSize 12
skinparam roundCorner 6
skinparam dpi 150
skinparam arrowColor black
skinparam arrowThickness 0.5
skinparam packageTitleAlignment left

skinparam usecase {
  borderThickness 0.5
}

skinparam rectangle {
  borderThickness 0.5
}

skinparam component {
  borderThickness 1
}


(<b>cli</b>)
rectangle "filigree" as _filigree
(<b>filigree-cli</b>)
rectangle "filigreeGrammar" as _filigreeGrammar
(<b>test-filigree</b>)
(<b>test-moo</b>)

package "Dependencies" {
  [commander]
  [moo]
  [nearley]
}

_filigree --> _filigreeGrammar
_filigree ---> [nearley]
(<b>filigree-cli</b>) ---[thickness=1]> [commander]
(<b>filigree-cli</b>) -[thickness=1]> _filigree
_filigreeGrammar ---> [moo]
(<b>test-filigree</b>) -[thickness=1]> _filigree
(<b>test-moo</b>) ---[thickness=1]> [moo]

@enduml


' View and edit on https://arkit.pro
]]></script></g></svg>