<?xml version="1.0" encoding="UTF-8" standalone="no"?><svg xmlns="http://www.w3.org/2000/svg" xmlns:xlink="http://www.w3.org/1999/xlink" contentScriptType="application/ecmascript" contentStyleType="text/css" height="263px" preserveAspectRatio="none" style="width:512px;height:263px;" version="1.1" viewBox="0 0 512 263" width="512px" zoomAndPan="magnify"><defs/><g><!--cluster Dependencies--><path d="M35,168 L129,168 A4.5,4.5 0 0 1 132,171 L139,188.4844 L367,188.4844 A3,3 0 0 1 370,191.4844 L370,248 A3,3 0 0 1 367,251 L35,251 A3,3 0 0 1 32,248 L32,171 A3,3 0 0 1 35,168 " fill="#FFFFFF" style="stroke: #000000; stroke-width: 1.5;"/><line style="stroke: #000000; stroke-width: 1.5;" x1="32" x2="139" y1="188.4844" y2="188.4844"/><text fill="#000000" font-family="Tahoma, sans-serif" font-size="12" font-weight="bold" lengthAdjust="spacingAndGlyphs" textLength="94" x="36" y="182.0059">Dependencies</text><!--entity commander--><rect fill="#F8F8F8" height="34.4844" rx="3" ry="3" style="stroke: #383838; stroke-width: 1.0;" width="89" x="48.5" y="201"/><rect fill="#F8F8F8" height="5" style="stroke: #383838; stroke-width: 1.0;" width="10" x="43.5" y="206"/><rect fill="#F8F8F8" height="5" style="stroke: #383838; stroke-width: 1.0;" width="10" x="43.5" y="225.4844"/><text fill="#000000" font-family="Tahoma, sans-serif" font-size="12" lengthAdjust="spacingAndGlyphs" textLength="69" x="58.5" y="223.0059">commander</text><!--entity moo--><rect fill="#F8F8F8" height="34.4844" rx="3" ry="3" style="stroke: #383838; stroke-width: 1.0;" width="47" x="306.5" y="201"/><rect fill="#F8F8F8" height="5" style="stroke: #383838; stroke-width: 1.0;" width="10" x="301.5" y="206"/><rect fill="#F8F8F8" height="5" style="stroke: #383838; stroke-width: 1.0;" width="10" x="301.5" y="225.4844"/><text fill="#000000" font-family="Tahoma, sans-serif" font-size="12" lengthAdjust="spacingAndGlyphs" textLength="27" x="316.5" y="223.0059">moo</text><!--entity nearley--><rect fill="#F8F8F8" height="34.4844" rx="3" ry="3" style="stroke: #383838; stroke-width: 1.0;" width="61" x="232.5" y="201"/><rect fill="#F8F8F8" height="5" style="stroke: #383838; stroke-width: 1.0;" width="10" x="227.5" y="206"/><rect fill="#F8F8F8" height="5" style="stroke: #383838; stroke-width: 1.0;" width="10" x="227.5" y="225.4844"/><text fill="#000000" font-family="Tahoma, sans-serif" font-size="12" lengthAdjust="spacingAndGlyphs" textLength="41" x="242.5" y="223.0059">nearley</text><!--entity titlecase--><rect fill="#F8F8F8" height="34.4844" rx="3" ry="3" style="stroke: #383838; stroke-width: 1.0;" width="69" x="150.5" y="201"/><rect fill="#F8F8F8" height="5" style="stroke: #383838; stroke-width: 1.0;" width="10" x="145.5" y="206"/><rect fill="#F8F8F8" height="5" style="stroke: #383838; stroke-width: 1.0;" width="10" x="145.5" y="225.4844"/><text fill="#000000" font-family="Tahoma, sans-serif" font-size="12" lengthAdjust="spacingAndGlyphs" textLength="49" x="160.5" y="223.0059">titlecase</text><ellipse cx="332.0811" cy="48.1648" fill="#F8F8F8" rx="15.0811" ry="12.6648" style="stroke: #383838; stroke-width: 0.5;"/><text fill="#000000" font-family="Tahoma, sans-serif" font-size="12" font-weight="bold" lengthAdjust="spacingAndGlyphs" textLength="16" x="324.0811" y="51.907">cli</text><ellipse cx="391.7843" cy="48.242" fill="#F8F8F8" rx="31.2843" ry="13.242" style="stroke: #383838; stroke-width: 0.5;"/><text fill="#000000" font-family="Tahoma, sans-serif" font-size="12" font-weight="bold" lengthAdjust="spacingAndGlyphs" textLength="40" x="371.7843" y="51.9842">decl.d</text><!--entity _filigree--><rect fill="#F8F8F8" height="34.4844" rx="3" ry="3" style="stroke: #000000; stroke-width: 0.5;" width="58" x="246" y="31"/><text fill="#000000" font-family="Tahoma, sans-serif" font-size="12" lengthAdjust="spacingAndGlyphs" textLength="38" x="256" y="53.0059">filigree</text><ellipse cx="57.0833" cy="48.242" fill="#F8F8F8" rx="51.0833" ry="13.242" style="stroke: #383838; stroke-width: 0.5;"/><text fill="#000000" font-family="Tahoma, sans-serif" font-size="12" font-weight="bold" lengthAdjust="spacingAndGlyphs" textLength="68" x="23.0833" y="51.9842">filigree-cli</text><!--entity _filigreeGrammar--><rect fill="#F8F8F8" height="34.4844" rx="3" ry="3" style="stroke: #000000; stroke-width: 0.5;" width="111" x="390.5" y="91"/><text fill="#000000" font-family="Tahoma, sans-serif" font-size="12" lengthAdjust="spacingAndGlyphs" textLength="91" x="400.5" y="113.0059">filigreeGrammar</text><ellipse cx="177.2187" cy="48.1437" fill="#F8F8F8" rx="56.2187" ry="13.6437" style="stroke: #383838; stroke-width: 0.5;"/><text fill="#000000" font-family="Tahoma, sans-serif" font-size="12" font-weight="bold" lengthAdjust="spacingAndGlyphs" textLength="78" x="138.2187" y="51.8859">test-filigree</text><ellipse cx="329.8406" cy="108.242" fill="#F8F8F8" rx="46.8406" ry="13.242" style="stroke: #383838; stroke-width: 0.5;"/><text fill="#000000" font-family="Tahoma, sans-serif" font-size="12" font-weight="bold" lengthAdjust="spacingAndGlyphs" textLength="62" x="298.8406" y="111.9842">test-moo</text><!--link _filigree to _filigreeGrammar--><path d="M304.354,62.381 C306.59,63.297 308.824,64.181 311,65 C335.021,74.039 361.941,82.701 385.385,89.786 " fill="none" id="_filigree-_filigreeGrammar" style="stroke: #000000; stroke-width: 0.5;"/><polygon fill="#000000" points="390.333,91.274,382.8662,84.8517,385.5448,89.8341,380.5624,92.5128,390.333,91.274" style="stroke: #000000; stroke-width: 0.5;"/><!--link _filigree to nearley--><path d="M273.849,65.109 C271.678,95.512 266.975,161.356 264.536,195.4965 " fill="none" id="_filigree-nearley" style="stroke: #000000; stroke-width: 0.5;"/><polygon fill="#000000" points="264.165,200.6934,268.7962,192.0013,264.5213,195.7061,260.8165,191.4312,264.165,200.6934" style="stroke: #000000; stroke-width: 0.5;"/><!--link _filigree to titlecase--><path d="M266.37,65.109 C250.016,95.637 214.519,161.898 196.295,195.9164 " fill="none" id="_filigree-titlecase" style="stroke: #000000; stroke-width: 0.5;"/><polygon fill="#000000" points="193.736,200.6934,201.5121,194.6492,196.0972,196.2861,194.4604,190.8712,193.736,200.6934" style="stroke: #000000; stroke-width: 0.5;"/><!--link <b>filigree-cli</b> to commander--><path d="M59.589,61.082 C65.6587,89.407 80.8673,160.381 88.4928,195.9666 " fill="none" id="&lt;b&gt;filigree-cli&lt;/b&gt;-commander" style="stroke: #000000; stroke-width: 1.0;"/><polygon fill="#000000" points="89.5609,200.9509,91.5862,191.3125,88.5132,196.0619,83.7638,192.9889,89.5609,200.9509" style="stroke: #000000; stroke-width: 1.0;"/><!--link <b>filigree-cli</b> to _filigree--><path d="M76.766,35.873 C88.9006,29.152 105.0339,21.47 120.5,18 C169.071,7.104 185.055,2.941 232.5,18 C239.223,20.134 245.799,23.757 251.692,27.763 " fill="none" id="&lt;b&gt;filigree-cli&lt;/b&gt;-_filigree" style="stroke: #000000; stroke-width: 1.0;"/><polygon fill="#000000" points="256.057,30.883,251.0612,22.3953,251.9893,27.9755,246.4091,28.9036,256.057,30.883" style="stroke: #000000; stroke-width: 1.0;"/><!--link _filigreeGrammar to moo--><path d="M428.634,125.169 C407.961,144.415 373.449,176.5477 351.215,197.2477 " fill="none" id="_filigreeGrammar-moo" style="stroke: #000000; stroke-width: 0.5;"/><polygon fill="#000000" points="347.485,200.7208,356.7977,197.5157,351.1445,197.3137,351.3464,191.6605,347.485,200.7208" style="stroke: #000000; stroke-width: 0.5;"/><!--link <b>test-filigree</b> to _filigree--><path d="M233.273,48 C235.79,48 238.306,48 240.822,48 " fill="none" id="&lt;b&gt;test-filigree&lt;/b&gt;-_filigree" style="stroke: #000000; stroke-width: 1.0;"/><polygon fill="#000000" points="245.987,48,236.987,44,240.987,48,236.987,52,245.987,48" style="stroke: #000000; stroke-width: 1.0;"/><!--link <b>test-moo</b> to moo--><path d="M330,121.389 C330,139.547 330,173.633 330,195.8164 " fill="none" id="&lt;b&gt;test-moo&lt;/b&gt;-moo" style="stroke: #000000; stroke-width: 1.0;"/><polygon fill="#000000" points="330,200.9079,334,191.9079,330,195.9079,326,191.9079,330,200.9079" style="stroke: #000000; stroke-width: 1.0;"/><script type="text/plantuml"><![CDATA[
@startuml

scale max 1920 width
top to bottom direction

skinparam nodesep 13
skinparam ranksep 26
skinparam monochrome true
skinparam shadowing false
skinparam defaultFontName Tahoma
skinparam defaultFontSize 12
skinparam roundCorner 6
skinparam dpi 150
skinparam arrowColor black
skinparam arrowThickness 0.5
skinparam packageTitleAlignment left

skinparam usecase {
  borderThickness 0.5
}

skinparam rectangle {
  borderThickness 0.5
}

skinparam component {
  borderThickness 1
}


(<b>cli</b>)
(<b>decl.d</b>)
rectangle "filigree" as _filigree
(<b>filigree-cli</b>)
rectangle "filigreeGrammar" as _filigreeGrammar
(<b>test-filigree</b>)
(<b>test-moo</b>)

package "Dependencies" {
  [commander]
  [moo]
  [nearley]
  [titlecase]
}

_filigree --> _filigreeGrammar
_filigree ---> [nearley]
_filigree ---> [titlecase]
(<b>filigree-cli</b>) ---[thickness=1]> [commander]
(<b>filigree-cli</b>) -[thickness=1]> _filigree
_filigreeGrammar ---> [moo]
(<b>test-filigree</b>) -[thickness=1]> _filigree
(<b>test-moo</b>) ---[thickness=1]> [moo]

@enduml


' View and edit on https://arkit.pro
]]></script></g></svg>