<?xml version="1.0" encoding="UTF-8" standalone="no"?><svg xmlns="http://www.w3.org/2000/svg" xmlns:xlink="http://www.w3.org/1999/xlink" contentScriptType="application/ecmascript" contentStyleType="text/css" height="265px" preserveAspectRatio="none" style="width:477px;height:265px;" version="1.1" viewBox="0 0 477 265" width="477px" zoomAndPan="magnify"><defs/><g><!--cluster Dependencies--><path d="M25,170 L119,170 A4.5,4.5 0 0 1 122,173 L129,190.4844 L462,190.4844 A3,3 0 0 1 465,193.4844 L465,250 A3,3 0 0 1 462,253 L25,253 A3,3 0 0 1 22,250 L22,173 A3,3 0 0 1 25,170 " fill="#FFFFFF" style="stroke: #000000; stroke-width: 1.5;"/><line style="stroke: #000000; stroke-width: 1.5;" x1="22" x2="129" y1="190.4844" y2="190.4844"/><text fill="#000000" font-family="Tahoma, sans-serif" font-size="12" font-weight="bold" lengthAdjust="spacingAndGlyphs" textLength="94" x="26" y="184.0059">Dependencies</text><!--entity commander--><rect fill="#F8F8F8" height="34.4844" rx="3" ry="3" style="stroke: #383838; stroke-width: 1.0;" width="89" x="38.5" y="203"/><rect fill="#F8F8F8" height="5" style="stroke: #383838; stroke-width: 1.0;" width="10" x="33.5" y="208"/><rect fill="#F8F8F8" height="5" style="stroke: #383838; stroke-width: 1.0;" width="10" x="33.5" y="227.4844"/><text fill="#000000" font-family="Tahoma, sans-serif" font-size="12" lengthAdjust="spacingAndGlyphs" textLength="69" x="48.5" y="225.0059">commander</text><!--entity moo--><rect fill="#F8F8F8" height="34.4844" rx="3" ry="3" style="stroke: #383838; stroke-width: 1.0;" width="47" x="222.5" y="203"/><rect fill="#F8F8F8" height="5" style="stroke: #383838; stroke-width: 1.0;" width="10" x="217.5" y="208"/><rect fill="#F8F8F8" height="5" style="stroke: #383838; stroke-width: 1.0;" width="10" x="217.5" y="227.4844"/><text fill="#000000" font-family="Tahoma, sans-serif" font-size="12" lengthAdjust="spacingAndGlyphs" textLength="27" x="232.5" y="225.0059">moo</text><!--entity nearley--><rect fill="#F8F8F8" height="34.4844" rx="3" ry="3" style="stroke: #383838; stroke-width: 1.0;" width="61" x="282.5" y="203"/><rect fill="#F8F8F8" height="5" style="stroke: #383838; stroke-width: 1.0;" width="10" x="277.5" y="208"/><rect fill="#F8F8F8" height="5" style="stroke: #383838; stroke-width: 1.0;" width="10" x="277.5" y="227.4844"/><text fill="#000000" font-family="Tahoma, sans-serif" font-size="12" lengthAdjust="spacingAndGlyphs" textLength="41" x="292.5" y="225.0059">nearley</text><!--entity seedrandom--><rect fill="#F8F8F8" height="34.4844" rx="3" ry="3" style="stroke: #383838; stroke-width: 1.0;" width="92" x="357" y="203"/><rect fill="#F8F8F8" height="5" style="stroke: #383838; stroke-width: 1.0;" width="10" x="352" y="208"/><rect fill="#F8F8F8" height="5" style="stroke: #383838; stroke-width: 1.0;" width="10" x="352" y="227.4844"/><text fill="#000000" font-family="Tahoma, sans-serif" font-size="12" lengthAdjust="spacingAndGlyphs" textLength="72" x="367" y="225.0059">seedrandom</text><!--entity titlecase--><rect fill="#F8F8F8" height="34.4844" rx="3" ry="3" style="stroke: #383838; stroke-width: 1.0;" width="69" x="140.5" y="203"/><rect fill="#F8F8F8" height="5" style="stroke: #383838; stroke-width: 1.0;" width="10" x="135.5" y="208"/><rect fill="#F8F8F8" height="5" style="stroke: #383838; stroke-width: 1.0;" width="10" x="135.5" y="227.4844"/><text fill="#000000" font-family="Tahoma, sans-serif" font-size="12" lengthAdjust="spacingAndGlyphs" textLength="49" x="150.5" y="225.0059">titlecase</text><ellipse cx="349.0811" cy="48.1648" fill="#F8F8F8" rx="15.0811" ry="12.6648" style="stroke: #383838; stroke-width: 0.5;"/><text fill="#000000" font-family="Tahoma, sans-serif" font-size="12" font-weight="bold" lengthAdjust="spacingAndGlyphs" textLength="16" x="341.0811" y="51.907">cli</text><ellipse cx="408.7843" cy="48.242" fill="#F8F8F8" rx="31.2843" ry="13.242" style="stroke: #383838; stroke-width: 0.5;"/><text fill="#000000" font-family="Tahoma, sans-serif" font-size="12" font-weight="bold" lengthAdjust="spacingAndGlyphs" textLength="40" x="388.7843" y="51.9842">decl.d</text><!--entity _filigree--><rect fill="#F8F8F8" height="34.4844" rx="3" ry="3" style="stroke: #000000; stroke-width: 0.5;" width="58" x="263" y="31"/><text fill="#000000" font-family="Tahoma, sans-serif" font-size="12" lengthAdjust="spacingAndGlyphs" textLength="38" x="273" y="53.0059">filigree</text><ellipse cx="61.0833" cy="48.242" fill="#F8F8F8" rx="51.0833" ry="13.242" style="stroke: #383838; stroke-width: 0.5;"/><text fill="#000000" font-family="Tahoma, sans-serif" font-size="12" font-weight="bold" lengthAdjust="spacingAndGlyphs" textLength="68" x="27.0833" y="51.9842">filigree-cli</text><!--entity _filigreeGrammar--><rect fill="#F8F8F8" height="34.4844" rx="3" ry="3" style="stroke: #000000; stroke-width: 0.5;" width="111" x="151.5" y="92"/><text fill="#000000" font-family="Tahoma, sans-serif" font-size="12" lengthAdjust="spacingAndGlyphs" textLength="91" x="161.5" y="114.0059">filigreeGrammar</text><ellipse cx="97.1838" cy="109.242" fill="#F8F8F8" rx="41.1838" ry="13.242" style="stroke: #383838; stroke-width: 0.5;"/><text fill="#000000" font-family="Tahoma, sans-serif" font-size="12" lengthAdjust="spacingAndGlyphs" textLength="54" x="70.1838" y="112.9842">modifiers</text><ellipse cx="194.2187" cy="48.1437" fill="#F8F8F8" rx="56.2187" ry="13.6437" style="stroke: #383838; stroke-width: 0.5;"/><text fill="#000000" font-family="Tahoma, sans-serif" font-size="12" font-weight="bold" lengthAdjust="spacingAndGlyphs" textLength="78" x="155.2187" y="51.8859">test-filigree</text><ellipse cx="322.8406" cy="109.242" fill="#F8F8F8" rx="46.8406" ry="13.242" style="stroke: #383838; stroke-width: 0.5;"/><text fill="#000000" font-family="Tahoma, sans-serif" font-size="12" font-weight="bold" lengthAdjust="spacingAndGlyphs" textLength="62" x="291.8406" y="112.9842">test-moo</text><!--link _filigree to _filigreeGrammar--><path d="M268.773,65.122 C258.185,72.471 245.572,81.226 234.512,88.903 " fill="none" id="_filigree-_filigreeGrammar" style="stroke: #000000; stroke-width: 0.5;"/><polygon fill="#000000" points="230.199,91.897,239.8731,90.0501,234.3062,89.0455,235.3108,83.4786,230.199,91.897" style="stroke: #000000; stroke-width: 0.5;"/><!--link _filigree to modifiers--><path d="M262.702,62.536 C260.453,63.417 258.201,64.25 256,65 C207.942,81.376 193.792,77.96 145,92 C139.506,93.581 133.704,95.392 128.105,97.214 " fill="none" id="_filigree-modifiers" style="stroke: #000000; stroke-width: 0.5;"/><polygon fill="#000000" points="123.034,98.884,132.8337,99.8672,127.783,97.3196,130.3306,92.2689,123.034,98.884" style="stroke: #000000; stroke-width: 0.5;"/><!--link _filigree to nearley--><path d="M321.057,61.873 C344.36,72.491 373.709,86.646 377,92 C384.914,104.873 381.649,111.622 377,126 C370.928,144.779 362.254,145.786 351,162 C342.618,174.0757 333.473,187.7772 326.254,198.72 " fill="none" id="_filigree-nearley" style="stroke: #000000; stroke-width: 0.5;"/><polygon fill="#000000" points="323.488,202.9217,331.7783,197.6047,326.2378,198.7457,325.0968,193.2051,323.488,202.9217" style="stroke: #000000; stroke-width: 0.5;"/><!--link _filigree to seedrandom--><path d="M321.078,61.928 C323.42,62.968 325.749,64.002 328,65 C355.102,77.021 371.486,68.077 389,92 C411.726,123.042 410.085,170.3151 406.662,197.5781 " fill="none" id="_filigree-seedrandom" style="stroke: #000000; stroke-width: 0.5;"/><polygon fill="#000000" points="405.961,202.7532,411.1339,194.3722,406.6328,197.7985,403.2064,193.2974,405.961,202.7532" style="stroke: #000000; stroke-width: 0.5;"/><!--link <b>filigree-cli</b> to commander--><path d="M56.6265,61.231 C53.8246,69.736 50.4509,81.403 49,92 C46.9501,106.971 46.3653,111.12 49,126 C53.5205,151.53 64.5156,179.2579 72.7873,197.7325 " fill="none" id="&lt;b&gt;filigree-cli&lt;/b&gt;-commander" style="stroke: #000000; stroke-width: 1.0;"/><polygon fill="#000000" points="75.0405,202.6884,74.9568,192.8399,72.971,198.1368,67.6742,196.151,75.0405,202.6884" style="stroke: #000000; stroke-width: 1.0;"/><!--link <b>filigree-cli</b> to _filigree--><path d="M83.7428,36.283 C98.6065,29.3 118.684,21.113 137.5,17.5 C186.385,8.114 202.114,2.256 249.5,17.5 C256.524,19.76 263.371,23.657 269.445,27.926 " fill="none" id="&lt;b&gt;filigree-cli&lt;/b&gt;-_filigree" style="stroke: #000000; stroke-width: 1.0;"/><polygon fill="#000000" points="273.52,30.924,268.643,22.3674,269.4932,27.96,263.9007,28.8102,273.52,30.924" style="stroke: #000000; stroke-width: 1.0;"/><!--link _filigreeGrammar to moo--><path d="M212.755,126.083 C219.581,145.162 230.98,177.0204 238.494,198.0214 " fill="none" id="_filigreeGrammar-moo" style="stroke: #000000; stroke-width: 0.5;"/><polygon fill="#000000" points="240.222,202.8507,240.9558,193.0292,238.5374,198.143,233.4236,195.7246,240.222,202.8507" style="stroke: #000000; stroke-width: 0.5;"/><!--link modifiers to titlecase--><path d="M105.6454,122.081 C118.883,140.581 144.333,176.1445 160.448,198.665 " fill="none" id="modifiers-titlecase" style="stroke: #000000; stroke-width: 0.5;"/><polygon fill="#000000" points="163.541,202.9862,161.5557,193.3395,160.631,198.9203,155.0502,197.9955,163.541,202.9862" style="stroke: #000000; stroke-width: 0.5;"/><!--link <b>test-filigree</b> to _filigree--><path d="M250.273,48 C252.79,48 255.306,48 257.822,48 " fill="none" id="&lt;b&gt;test-filigree&lt;/b&gt;-_filigree" style="stroke: #000000; stroke-width: 1.0;"/><polygon fill="#000000" points="262.987,48,253.987,44,257.987,48,253.987,52,262.987,48" style="stroke: #000000; stroke-width: 1.0;"/><!--link <b>test-filigree</b> to _filigreeGrammar--><path d="M196.757,61.512 C198.362,68.796 200.428,78.174 202.284,86.598 " fill="none" id="&lt;b&gt;test-filigree&lt;/b&gt;-_filigreeGrammar" style="stroke: #000000; stroke-width: 1.0;"/><polygon fill="#000000" points="203.407,91.692,205.377,82.0422,202.3313,86.8091,197.5644,83.7633,203.407,91.692" style="stroke: #000000; stroke-width: 1.0;"/><!--link <b>test-moo</b> to moo--><path d="M310.875,121.666 C300.792,131.755 286.452,147.036 276,162 C268.044,173.391 260.743,187.152 255.337,198.2991 " fill="none" id="&lt;b&gt;test-moo&lt;/b&gt;-moo" style="stroke: #000000; stroke-width: 1.0;"/><polygon fill="#000000" points="253.139,202.9018,260.6261,196.5032,255.2931,198.3896,253.4066,193.0566,253.139,202.9018" style="stroke: #000000; stroke-width: 1.0;"/><script type="text/plantuml"><![CDATA[
@startuml

scale max 1920 width
top to bottom direction

skinparam nodesep 13
skinparam ranksep 27
skinparam monochrome true
skinparam shadowing false
skinparam defaultFontName Tahoma
skinparam defaultFontSize 12
skinparam roundCorner 6
skinparam dpi 150
skinparam arrowColor black
skinparam arrowThickness 0.5
skinparam packageTitleAlignment left

skinparam usecase {
  borderThickness 0.5
}

skinparam rectangle {
  borderThickness 0.5
}

skinparam component {
  borderThickness 1
}


(<b>cli</b>)
(<b>decl.d</b>)
rectangle "filigree" as _filigree
(<b>filigree-cli</b>)
rectangle "filigreeGrammar" as _filigreeGrammar
(modifiers)
(<b>test-filigree</b>)
(<b>test-moo</b>)

package "Dependencies" {
  [commander]
  [moo]
  [nearley]
  [seedrandom]
  [titlecase]
}

_filigree --> _filigreeGrammar
_filigree --> (modifiers)
_filigree ---> [nearley]
_filigree ---> [seedrandom]
(<b>filigree-cli</b>) ---[thickness=1]> [commander]
(<b>filigree-cli</b>) -[thickness=1]> _filigree
_filigreeGrammar ---> [moo]
(modifiers) ---> [titlecase]
(<b>test-filigree</b>) -[thickness=1]> _filigree
(<b>test-filigree</b>) -[thickness=1]> _filigreeGrammar
(<b>test-moo</b>) ---[thickness=1]> [moo]

@enduml


' View and edit on https://arkit.pro
]]></script></g></svg>